<svg width="920" height="920" viewBox="0 0 920 920" fill="none" xmlns="http://www.w3.org/2000/svg">
  <defs>
    <radialGradient id="bgGlow" cx="0" cy="0" r="1" gradientUnits="userSpaceOnUse" gradientTransform="translate(470 412) rotate(90) scale(430)">
      <stop offset="0" stop-color="#F2BF74" stop-opacity="0.38"/>
      <stop offset="0.55" stop-color="#77BEFF" stop-opacity="0.24"/>
      <stop offset="1" stop-color="#090D14" stop-opacity="0"/>
    </radialGradient>
    <linearGradient id="maskCore" x1="240" y1="220" x2="690" y2="720" gradientUnits="userSpaceOnUse">
      <stop stop-color="#232F45"/>
      <stop offset="0.58" stop-color="#141C2E"/>
      <stop offset="1" stop-color="#111822"/>
    </linearGradient>
    <linearGradient id="eyeGlow" x1="0" y1="0" x2="1" y2="0">
      <stop stop-color="#F6BE72"/>
      <stop offset="0.5" stop-color="#80CCFF"/>
      <stop offset="1" stop-color="#5AA7FF"/>
    </linearGradient>
    <linearGradient id="mouthGlow" x1="0" y1="0" x2="1" y2="0">
      <stop stop-color="#F0B868" stop-opacity="0.88"/>
      <stop offset="1" stop-color="#5FB5FF" stop-opacity="0.92"/>
    </linearGradient>
    <filter id="softGlow" x="0" y="0" width="920" height="920" filterUnits="userSpaceOnUse" color-interpolation-filters="sRGB">
      <feGaussianBlur stdDeviation="22"/>
    </filter>
    <filter id="faceInner" x="186" y="126" width="552" height="694" filterUnits="userSpaceOnUse" color-interpolation-filters="sRGB">
      <feDropShadow dx="0" dy="10" stdDeviation="24" flood-color="#000" flood-opacity="0.48"/>
    </filter>
  </defs>

  <circle cx="460" cy="460" r="360" fill="url(#bgGlow)" filter="url(#softGlow)"/>

  <g filter="url(#faceInner)">
    <rect x="230" y="170" width="460" height="580" rx="142" fill="url(#maskCore)"/>
    <rect x="245" y="185" width="430" height="550" rx="128" stroke="#F1D6A8" stroke-opacity="0.28" stroke-width="2"/>
  </g>

  <path d="M314 300C366 262 555 262 608 300" stroke="#76BCFF" stroke-opacity="0.35" stroke-width="3" stroke-linecap="round"/>
  <path d="M304 620C356 660 565 660 616 620" stroke="#F0BA72" stroke-opacity="0.28" stroke-width="3" stroke-linecap="round"/>

  <rect x="292" y="356" width="132" height="44" rx="22" fill="url(#eyeGlow)"/>
  <rect x="496" y="356" width="132" height="44" rx="22" fill="url(#eyeGlow)"/>

  <rect x="298" y="364" width="120" height="28" rx="14" fill="#0D1320" fill-opacity="0.35"/>
  <rect x="502" y="364" width="120" height="28" rx="14" fill="#0D1320" fill-opacity="0.35"/>

  <rect x="432" y="408" width="56" height="126" rx="28" fill="url(#mouthGlow)" fill-opacity="0.72"/>
  <rect x="407" y="560" width="106" height="24" rx="12" fill="#0F1723"/>
  <rect x="412" y="565" width="96" height="14" rx="7" fill="url(#mouthGlow)" fill-opacity="0.84"/>

  <circle cx="354" cy="516" r="34" fill="#F0B866" fill-opacity="0.17"/>
  <circle cx="566" cy="516" r="34" fill="#76BCFF" fill-opacity="0.17"/>

  <path d="M460 220V150" stroke="#75BCFF" stroke-opacity="0.35" stroke-width="4" stroke-linecap="round"/>
  <circle cx="460" cy="130" r="18" fill="#7FCBFF" fill-opacity="0.64"/>

  <path d="M254 452H186" stroke="#F1BE73" stroke-opacity="0.4" stroke-width="3" stroke-linecap="round"/>
  <path d="M736 452H668" stroke="#7DC8FF" stroke-opacity="0.4" stroke-width="3" stroke-linecap="round"/>

  <path d="M298 736L334 670" stroke="#F1BE73" stroke-opacity="0.28" stroke-width="3"/>
  <path d="M622 736L586 670" stroke="#7DC8FF" stroke-opacity="0.28" stroke-width="3"/>
</svg>
