<svg width="512" height="512" viewBox="0 0 512 512" fill="none" xmlns="http://www.w3.org/2000/svg">
  <path d="M256 68C174 68 102 120 76 197C61 240 64 292 87 335C112 383 156 422 210 441C244 453 281 456 316 446C348 437 374 418 389 390C393 382 390 373 382 369C374 364 364 367 360 375C349 396 329 411 304 418C276 426 246 423 220 414C172 398 133 362 112 316C92 275 89 231 102 195C123 133 183 96 256 96C313 96 364 118 399 160C404 166 414 167 421 162C428 156 429 146 423 139C381 93 321 68 256 68Z" fill="#4D6BFF"/>
  <path d="M155 256C151 237 166 220 185 220H197C268 220 329 262 359 324C363 332 359 341 351 346C343 351 333 347 329 339C304 289 253 256 197 256H185C184 256 183 257 183 259C184 314 219 365 268 385C276 388 280 398 276 406C273 413 265 417 257 414C196 388 154 326 155 256Z" fill="#4D6BFF"/>
  <path d="M308 204C301 204 296 199 296 192C296 176 308 164 324 164C334 164 342 168 348 174C353 180 361 181 367 177C372 172 373 163 368 157C357 145 341 136 324 136C290 136 264 162 264 192C264 216 283 236 308 236C315 236 320 231 320 224C320 213 329 204 340 204C351 204 360 213 360 224C360 251 338 272 312 272H308C301 272 296 267 296 260C296 253 301 248 308 248H312C319 248 326 242 328 235C321 232 314 228 309 223C303 218 300 211 300 204H308Z" fill="#4D6BFF"/>
  <circle cx="304" cy="202" r="7" fill="#EAF0FF"/>
</svg>
