<svg width="240" height="240" viewBox="0 0 240 240" xmlns="http://www.w3.org/2000/svg">
  <defs>
    <radialGradient id="halo" cx="50%" cy="50%" r="58%">
      <stop offset="0%" stop-color="#8ed4ff" stop-opacity="0.4"/>
      <stop offset="100%" stop-color="#0a1730" stop-opacity="0.1"/>
    </radialGradient>
    <linearGradient id="wall" x1="0" y1="0" x2="1" y2="1">
      <stop offset="0%" stop-color="#c8f6ff"/>
      <stop offset="100%" stop-color="#5bafff"/>
    </linearGradient>
  </defs>
  <circle cx="120" cy="120" r="108" fill="url(#halo)"/>
  <path d="M58 78 H182 V170 H58 Z" fill="none" stroke="url(#wall)" stroke-width="6"/>
  <path d="M72 66 V170 M92 66 V170 M112 66 V170 M132 66 V170 M152 66 V170 M172 66 V170" stroke="#a6e8ff" stroke-width="4"/>
  <path d="M74 154 H166" stroke="#d9f6ff" stroke-width="5" stroke-linecap="round"/>
  <path d="M120 94 C132 94 140 102 140 114 C140 126 132 134 120 134 C108 134 100 126 100 114 C100 102 108 94 120 94 Z" fill="none" stroke="#d9f6ff" stroke-width="4"/>
</svg>
